<svg xmlns="http://www.w3.org/2000/svg">
	
	<!-- arrow_top -->
	<symbol id="arrow_top" viewBox="0 0 7 30">
		<path d="M3,4v26h1V4h2.6L3.5,0L0.4,4H3z"/>
	</symbol>

	<!-- arrow_bottom -->
	<symbol id="arrow_bottom" viewBox="0 0 7 30">
		<path d="M4,26V0H3v26H0.4l3.1,4l3.1-4H4z"/>
	</symbol>

	<!-- arrow_left -->
	<symbol id="arrow_left" viewBox="0 0 30 7">
		<path d="M4,4h26V3H4V0.4L0,3.5l4,3.1V4z"/>
	</symbol>

	<!-- arrow_right -->
	<symbol id="arrow_right" viewBox="0 0 30 7">
		<path d="M26,3H0v1h26v2.6l4-3.1l-4-3.1V3z"/>
	</symbol>

	<!-- check_single -->
	<symbol id="check_single" viewBox="0 0 18 18">
		<path d="M7.5,13.8L1.5,7.9l0.7-0.7l5.2,5.2l8.3-8.2l0.7,0.7L7.5,13.8z"/>
	</symbol>

	<!-- check_double -->
	<symbol id="check_double" viewBox="0 0 18 18">
		<path d="M5.8,13.6L0.1,8l0.7-0.7l4.9,4.9l7.8-7.7l0.7,0.7L5.8,13.6z M17.9,5.1l-0.7-0.7l-7.5,7.7l-0.8-0.8L8.2,12
	l1.5,1.5L17.9,5.1z"/>
	</symbol>

	<!-- check_canceled -->
	<symbol id="check_canceled" viewBox="0 0 18 18">
		<path d="M9.7,9l4.6,4.6l-0.7,0.7L9,9.7l-4.6,4.6l-0.7-0.7L8.3,9L3.6,4.4l0.7-0.7L9,8.3l4.6-4.6l0.7,0.7L9.7,9z"/>
	</symbol>

	<!-- bell -->
	<symbol id="bell" viewBox="0 0 16 16">
		<path d="M8,16c1.3,0,2.4-1.1,2.4-2.4H5.6C5.6,14.9,6.7,16,8,16 M8,0c0,0-0.6,0-0.6,0.8
	c0,0-3.8,0.9-3.9,4.2c0,0,0.3,6.1-2.1,6.8c0,0-0.3,0.4-0.3,1.1h7h7c0-0.7-0.3-1.1-0.3-1.1c-2.4-0.7-2.1-6.8-2.1-6.8
	c-0.2-3.3-3.9-4.2-3.9-4.2C8.6,0,8,0,8,0 M8,2.7l0.1,0c0.1,0,2.3,0.6,2.4,2.3c-0.1,1.2-0.1,3.8,0.8,5.8H8H4.6
	c0.8-2.1,0.8-4.6,0.8-5.8c0.2-1.7,2.3-2.3,2.4-2.3L8,2.7"/>
	</symbol>
	
	<!-- cancel -->
	<symbol id="cancel" viewBox="0 0 16 16">
		<path d="M8.8,8l2.7-2.7l-0.8-0.8L8,7.2L5.3,4.5L4.5,5.3L7.2,8l-2.7,2.7
	l0.8,0.8L8,8.8l2.7,2.7l0.8-0.8L8.8,8z M8,14c3.3,0,6-2.7,6-6s-2.7-6-6-6S2,4.7,2,8S4.7,14,8,14z M8,16c-4.4,0-8-3.6-8-8s3.6-8,8-8
	s8,3.6,8,8S12.4,16,8,16z"/>
	</symbol>

	<!-- chat -->
	<symbol id="chat" viewBox="0 0 16 16">
		<path d="M2.1,13.9l0.7-2.5C1,10.3,0,8.9,0,7.3C0,4.4,3.6,2,8,2s8,2.4,8,5.3
	s-3.6,5.3-8,5.3c-0.3,0-0.6,0-0.9,0L2.1,13.9z M8,4C4.5,4,2,5.8,2,7.3C2,8.1,2.6,9,3.8,9.6l1.3,0.8l-0.2,0.7L7,10.6l0.3,0
	c0.2,0,0.5,0,0.7,0c3.5,0,6-1.8,6-3.3S11.5,4,8,4z"/>
	</symbol>

	<!-- coefficient -->
	<symbol id="coefficient" viewBox="0 0 16 16">
		<path d="M10,4.5L1.5,13L3,14.5L11.5,6l2.3,2.3l0.7-6.9L7.6,2.1L10,4.5z"/>
	</symbol>	

	<!-- edit -->
	<symbol id="edit" viewBox="0 0 16 16">
		<path d="M10,1l2.6,1.5l-5,8.7L5,9.7L10,1z M4.5,10.5L7.1,12l-2.8,1.8
	L4.5,10.5z M1,14h14v1H1V14z"/>
	</symbol>

	<!-- feedback -->
	<symbol id="feedback" viewBox="0 0 16 16">
		<path d="M7.2,10c0-0.3,0-0.6,0.1-0.8c0-0.2,0.1-0.4,0.2-0.6c0.1-0.2,0.2-0.3,0.3-0.5s0.3-0.3,0.5-0.6
	c0.1-0.1,0.3-0.3,0.4-0.4C8.8,7.1,9,6.9,9.1,6.8c0.1-0.1,0.2-0.3,0.2-0.5C9.3,6.2,9.4,6,9.4,5.8c0-0.4-0.1-0.8-0.3-1
	C8.8,4.5,8.5,4.4,8,4.4c-0.2,0-0.4,0-0.5,0.1c-0.2,0-0.3,0.1-0.4,0.2C6.9,4.8,6.8,4.9,6.7,5.1S6.6,5.4,6.6,5.6H5.5
	c0-0.4,0.1-0.7,0.2-0.9C5.8,4.4,6,4.1,6.2,4C6.4,3.8,6.7,3.6,7,3.5c0.3-0.1,0.6-0.2,1-0.2c0.4,0,0.8,0.1,1.1,0.2
	C9.4,3.6,9.7,3.8,9.9,4c0.2,0.2,0.4,0.5,0.5,0.7c0.1,0.3,0.2,0.6,0.2,1c0,0.3,0,0.5-0.1,0.8C10.3,6.8,10.2,7,10,7.2
	C9.9,7.4,9.7,7.7,9.5,7.9C9.4,8.1,9.2,8.2,9,8.4C8.7,8.6,8.6,8.9,8.5,9.2C8.4,9.4,8.4,9.7,8.4,10H7.2z M7.2,12
	c0-0.2,0.1-0.3,0.2-0.5c0.1-0.1,0.3-0.2,0.5-0.2c0.2,0,0.4,0.1,0.5,0.2c0.1,0.1,0.2,0.3,0.2,0.5s-0.1,0.3-0.2,0.5s-0.3,0.2-0.5,0.2
	c-0.2,0-0.4-0.1-0.5-0.2C7.2,12.3,7.2,12.2,7.2,12z"/>
	</symbol>

	<!-- info -->
	<symbol id="info" viewBox="0 0 16 16">
		<path d="M7.4,11.7c0-0.2,0.1-0.3,0.2-0.4s0.3-0.2,0.5-0.2s0.4,0.1,0.5,0.2s0.2,0.3,0.2,0.4S8.6,12,8.5,12.1
	S8.2,12.3,8,12.3s-0.4-0.1-0.5-0.2S7.4,11.9,7.4,11.7z M8.5,9.8h-1L7.4,3.7h1.1L8.5,9.8z"/>
	</symbol>

	<!-- phone -->
	<symbol id="phone" viewBox="0 0 16 16">
		<path d="M8,0C3.6,0,0,3.6,0,8c0,4.4,3.6,8,8,8c0.3,0,0.5-0.2,0.5-0.5
	C8.5,15.2,8.3,15,8,15c-3.9,0-7-3.1-7-7c0-3.9,3.1-7,7-7c3.9,0,7,3.1,7,7c0,1.6-0.9,3.2-2.1,3.9c-0.4,0.2-0.9,0.4-1.4,0.4
	c0.3-0.2,0.6-0.4,0.8-0.7c0-0.1,0.1-0.1,0.1-0.2c0.2-0.4,0.2-0.8,0.3-1.2c0.1-0.5-2.3-1.5-2.5-0.9c-0.1,0.2-0.2,1-0.3,1.2
	c-0.1,0.2-0.5,0.1-0.7-0.1C8.6,9.9,8,9.2,7.4,8.7c0,0,0,0,0,0c0,0,0,0,0,0v0C6.8,8,6.1,7.4,5.7,6.9C5.5,6.7,5.4,6.3,5.6,6.2
	c0.2-0.2,1-0.3,1.2-0.3c0.7-0.2-0.4-2.6-0.9-2.5C5.5,3.5,5,3.5,4.7,3.6c-0.1,0-0.1,0.1-0.2,0.1c-1.4,0.9-1.5,3-0.2,4.6
	c0.5,0.6,1,1.2,1.6,1.8l0,0c0,0,0,0,0,0c0,0,0,0,0,0l0,0c0.6,0.5,1.2,1.4,2.3,2.1c2.3,1.5,4.1,1.1,5.1,0.5c1.8-1,2.6-3.1,2.6-4.8
	C16,3.6,12.4,0,8,0z"/>
	</symbol>

	<!-- ruble -->
	<symbol id="ruble" viewBox="0 0 16 16">
		<path d="M12.3,6.2c-0.1,0.4-0.3,0.7-0.6,1c-0.3,0.3-0.6,0.5-1.1,0.6S9.6,8,9,8H5.2V1.7
	H9c0.6,0,1.1,0.1,1.6,0.3c0.4,0.2,0.8,0.4,1.1,0.7c0.3,0.3,0.5,0.6,0.6,1c0.1,0.4,0.2,0.8,0.2,1.2C12.5,5.4,12.4,5.8,12.3,6.2
	 M14.3,2.9c-0.2-0.6-0.6-1.1-1.1-1.5s-1.1-0.8-1.8-1S9.9,0,9,0H3.1v8H2v1.7h1.1v2H2v1.7h1.1V16h2.1v-2.6h4.9v-1.7H5.2v-2H9
	c0.9,0,1.7-0.1,2.4-0.3c0.7-0.2,1.3-0.5,1.8-0.9S14,7.6,14.3,7c0.2-0.6,0.4-1.3,0.4-2.1C14.6,4.2,14.5,3.5,14.3,2.9"/>
	</symbol>

	<!-- score -->
	<symbol id="score" viewBox="0 0 16 16">
		<path d="M10.9,11.9L8,10.4l-2.9,1.5l0.5-3.2L3.4,6.5L6.6,6L8,3.1
	L9.4,6l3.2,0.5l-2.3,2.3L10.9,11.9z M8,9.3l1.5,0.8L9.2,8.4l1.2-1.2L8.8,6.9L8,5.4L7.2,6.9L5.5,7.2l1.2,1.2l-0.3,1.7L8,9.3z"/>
	</symbol>

	<!-- select -->
	<symbol id="select" viewBox="0 0 16 16">
		<path d="M8,2.5l3,4H5L8,2.5z M8,13.5l-3-4h6L8,13.5z"/>
	</symbol>

	<!-- switch-off -->
	<symbol id="switch-off" viewBox="0 0 16 16">
		<path d="M10.5,1.7V4c1.8,0.8,3,2.6,3,4.7c0,2.8-2.3,5.2-5.2,5.2
	s-5.2-2.3-5.2-5.2c0-2.1,1.2-3.8,3-4.7V1.7C3.2,2.6,1,5.4,1,8.7c0,4,3.3,7.3,7.3,7.3s7.3-3.3,7.3-7.3C15.6,5.4,13.5,2.6,10.5,1.7
	L10.5,1.7z M7.1,5.6h2.4V0H7.1V5.6z"/>
	</symbol>

	<!-- time_clock -->
	<symbol id="time_clock" viewBox="0 0 16 16">
		<path d="M12.8,7.2h-4V3.3H7.2v5.6h5.6V7.2z M8,0C3.6,0,0,3.6,0,8c0,4.4,3.6,8,8,8
	c4.4,0,8-3.6,8-8C16,3.6,12.4,0,8,0L8,0z M8,2c3.3,0,6,2.7,6,6c0,3.3-2.7,6-6,6c-3.3,0-6-2.7-6-6C2,4.7,4.7,2,8,2L8,2z"/>
	</symbol>

	<!-- time_all -->
	<symbol id="time_all" viewBox="0 0 16 16">
		<path d="M0,2V0h16v2H0z M0,9V7h16v2H0z M0,16v-2h16v2H0z"/>
	</symbol>

</svg>
